<svg xmlns="http://www.w3.org/2000/svg" version="1.2" baseProfile="tiny" width="156.79459237034223"
  height="135.5" viewBox="21.602703814828875 18.5 156.79459237034223 135.5" stroke-width="4"
  stroke="black" fill="none" font-family="Arial">
  <path d="M 65,150 c -55,0 -50,-90 0,-90 0,-50 70,-50 70,0 50,0 55,90 0,90" stroke-width="4"
    fill="rgb(255,255,128)"></path>
  <path d="M 100 22.5 C 85 22.5 70 31.669211 66 50 L 134 50 C 130 31.669204 115 22.5 100 22.5 z"
    fill="black" stroke="none"></path>
  <path
    d="m 115,70 20,0 0,55 -20,0 z m -25,5 20,0 0,45 -20,0 z m -25,-5 20,0 0,55 -20,0 z"
    fill="black"></path>
  <path d="M80,135 c10,-10 30,-10 40,0 M100,127 L100,100 M70,100 L130,100"
></path>
</svg>