<svg xmlns="http://www.w3.org/2000/svg" version="1.2" baseProfile="tiny" width="270" height="208"
  viewBox="-37.666666666666664 -4 270 208"
  stroke-width="4" fill="black" font-family="Arial"

  >
  <path stroke="white" fill="rgba(255, 255, 255, 255)" d="M 20,45 L 180,45 L 180,155 L 20,155 Z"></path>
  <path stroke="blue" fill="none"
    d="M 99.778308,100.3735 C 91.286233,96.582895 82.793781,92.792121 75.86405,90.327413 68.934319,87.862704 63.562494,86.414978 59.061254,86.056206 c -4.501241,-0.358773 -8.419795,0.05753 -11.646501,1.283033 -3.226706,1.225507 -6.230093,3.370479 -7.741499,5.536587 -1.511406,2.166108 -2.195915,4.757328 -1.98578,7.061566 0.210134,2.304238 1.395384,4.919048 2.894903,6.826968 1.49952,1.90792 3.367984,3.3659 5.787837,4.43742 2.419852,1.07151 5.804526,1.66588 9.553108,1.73286 3.748582,0.067 8.061344,-0.52846 12.840887,-1.59799 4.779543,-1.06952 10.06742,-2.72198 15.299927,-4.66727 5.232507,-1.94529 10.438332,-4.20145 16.118574,-6.764078 5.68025,-2.562626 11.83228,-5.448733 17.77149,-7.887665 5.9392,-2.438932 11.69285,-4.478069 16.00665,-5.5772 4.3138,-1.099131 7.18931,-1.557557 9.91369,-1.5697 2.72438,-0.01214 5.40344,0.391456 7.85878,1.299388 2.45534,0.907932 4.90196,2.440498 6.58693,4.176976 1.68497,1.736479 2.89945,3.819518 3.45714,5.8711 0.55768,2.051582 0.56625,4.349319 0.0455,6.209779 -0.52078,1.86046 -1.59551,3.615 -3.1186,5.22713 -1.5231,1.61214 -3.68941,3.11892 -6.10589,4.0903 -2.41649,0.97138 -5.37098,1.42987 -9.47171,1.39434 -4.10073,-0.0355 -9.57461,-0.97337 -15.70205,-2.53031 -6.12745,-1.55695 -12.96447,-3.88189 -17.64713,-5.78891 -4.68265,-1.90701 -7.34071,-3.17692 -9.999202,-4.44703"></path>
  <path stroke="blue" fill="none" d="M 100,60 L 100,135"></path>

  <text stroke="none" x="195" y="155" text-anchor="start" font-size="40">H</text>
  <text stroke="none" x="195" y="120" text-anchor="start" font-size="40">M</text>
  <text stroke="none" x="5" y="120" text-anchor="end" font-size="40">T</text>
  <text stroke="none" x="5" y="80" text-anchor="end" font-size="40">W</text>
  <text stroke="none" x="5" y="155" text-anchor="end" font-size="40">Z</text>
  <text stroke="none" x="100" y="140" text-anchor="center" font-size="40">AA</text>
</svg>