<svg xmlns="http://www.w3.org/2000/svg" version="1.2" baseProfile="tiny" width="158" height="138"
  viewBox="21 46 158 138">
  <path d="m 65,50 c -55,0 -50,90 0,90 0,50 70,50 70,0 50,0 55,-90 0,-90" stroke-width="4"
    stroke="rgb(255, 255, 0)" fill="none" fill-opacity="1"></path>
    <path
    d="M 115.9,73 126.5,62.4 137.1,73 126.5,83.6 m -53,0 L 62.9,73 73.5,62.4 84.1,73 m 8.4,-3 0,-15 15,0 0,15 m 22.5,30 c 0,16.6 -13.4,30 -30,30 -16.6,0 -30,-13.4 -30,-30 0,-16.6 13.4,-30 30,-30 C 116.6,70 130,83.4 130,100 z"
    stroke-width="4"
    stroke="black"
    fill="rgb(255, 0, 0)"></path>
</svg>